
<svg width="200" height="150" viewBox="0 0 200 150" xmlns="http://www.w3.org/2000/svg">

<rect width="200" height="150" rx="12" fill="#315e7f" stroke="#1b3c55"/>

  <!-- Title -->
  <text x="100" y="22" text-anchor="middle"
        fill="#d4b93c" font-size="14" font-weight="700">
    Commits
  </text>

  <!-- Trophy icon -->
  <text x="100" y="58" text-anchor="middle" font-size="26">
    <svg xmlns="http://www.w3.org/2000/svg" viewBox="0 0 418 512.098" shape-rendering="geometricPrecision" text-rendering="geometricPrecision" image-rendering="optimizeQuality" fill-rule="evenodd" clip-rule="evenodd">
         <path fill="#1b70d0" d="M89.487 249.494L0 95.776 76.012.004h.242L82.8 11.187l-1.348-2.221L209 198.125c-35.123 6.917-66.085 25.43-88.722 51.369z"/>
         <path fill="rgba(13, 42, 95, 1)" d="M341.642 0L418 95.776l-89.519 153.682c-22.587-25.893-53.454-44.369-88.471-51.317L209 198.125l-.772  0h.375z"/>
         <circle fill="#F5C800" cx="209" cy="353.598" r="158.499"/>
         <path fill="#FFDD61" d="M209.112 233.909c65.819 0 119.182 53.35 119.182 119.182 0 65.837-53.363 119.201-119.182 119.201-65.83 0-119.192-53.364-119.192-119.201 0-65.828 53.362-119.182 119.192-119.182z"/>
         <path fill="#E37E00" fill-rule="nonzero" d="M212.625 285.676l18.707 43.806 47.452 4.259a3.802 3.802 0 012.179 6.652v.002l-35.898 31.346 10.619 46.463a3.814 3.814 0 01-5.802 4.041l-40.775-24.379-40.905 24.456a3.808 3.808 0 01-5.667-4.118l-.004-.002 10.62-46.462-35.9-31.345a3.807 3.807 0 012.303-6.667l47.326-4.246 18.72-43.829a3.811 3.811 0 017.025.023z"/>
         <text x="209" y="270" fill="#000000" text-anchor="middle" font-size="48" font-weight="bold">
            Parabéns
         </text>
       </svg>
  </text>

  <!-- Rank badge -->
  <rect x="75" y="70" width="50" height="22" rx="6"
      fill="#8856e4"/>
  <text x="100" y="86" text-anchor="middle"
        fill="#fff" font-size="12" font-weight="700">
    AA
  </text>

  <!-- Subtitle -->
  <text x="100" y="108" text-anchor="middle"
        fill="#788f4d" font-size="12">
    Hyper Committer
  </text>

  <!-- Score -->
  <text x="100" y="125" text-anchor="middle"
        fill="#539df1" font-size="13" font-weight="700">
    338 pts
  </text>

  <!-- Progress bar -->
  <rect x="12" y="135" width="176" height="8" rx="4" fill="#21262d"/>
  <rect x="12" y="135" width="96.8"
        height="8" rx="4" fill="#595599"/>
</svg>
