
<svg width="420" height="170" viewBox="0 0 420 170" xmlns="http://www.w3.org/2000/svg">

  <defs>
    <filter id="shadow" x="-10%" y="-10%" width="120%" height="120%">
      <feDropShadow dx="0" dy="3" stdDeviation="4" flood-opacity="0.25"/>
    </filter>
  </defs>

  <rect width="100%" height="100%" rx="18"
        fill="#315e7f"
        stroke="#5d5e60"
        stroke-width="1.2"
        filter="url(#shadow)"/>

  
  <g stroke="#45a891" stroke-width="2" fill="none">
    <rect x="28" y="25" width="18" height="22" rx="4"/>
    <line x1="37" y1="25" x2="37" y2="47"/>
    <path d="M37 25 l6 -4 v22 l-6 4"/>
  </g>

  <!-- Title -->
  <text x="65" y="42"
        font-size="19"
        font-weight="600"
        fill="#eff0f2"
        font-family="Segoe UI, Arial, sans-serif">
        ToDo-List_react
  </text>

  <!-- Description -->
  <text x="30" y="85"
        font-size="14"
        fill="#959ea4"
        font-family="Segoe UI, Arial, sans-serif">

    <tspan x="30" dy="0">Front End todo list in HTML CSS JS, crud in memory.</tspan>
    

  </text>

  <!-- Bottom Row -->
  <g transform="translate(30,135)">

    <!-- Language Circle -->
    <circle cx="0" cy="0" r="8"
            fill="#f1e05a"/>

    <!-- Language -->
    <text x="18" y="0"
          font-size="13"
          fill="#959ea4"
          font-family="Segoe UI, Arial, sans-serif"
          dominant-baseline="middle">
      JavaScript
    </text>

    <!-- Star + Count -->
<g transform="translate(190,0)">

  <!-- Star (ligeiramente mais alta) -->
  <g transform="translate(0,-1.5)">
    
  <g transform="scale(0.4583333333333333)">
    <path d="M12 2
             L15 10
             L23 11
             L17 17
             L19 25
             L12 21
             L5 25
             L7 17
             L1 11
             L9 10 Z"
          fill="none"
          stroke="#45a891"
          stroke-width="2"
          stroke-linejoin="round"
          stroke-linecap="round"/>
  </g>
  </g>

  <!-- Count (ligeiramente mais baixo) -->
  <text x="21" y="3.8"
        font-size="13"
        fill="#959ea4"
        font-family="Segoe UI, Arial, sans-serif"
        dominant-baseline="middle">
    1
  </text>

</g>


</g>

</svg>
