
<svg width="420" height="170" viewBox="0 0 420 170" xmlns="http://www.w3.org/2000/svg">

  <defs>
    <filter id="shadow" x="-10%" y="-10%" width="120%" height="120%">
      <feDropShadow dx="0" dy="3" stdDeviation="4" flood-opacity="0.25"/>
    </filter>
  </defs>

  <rect width="100%" height="100%" rx="18"
        fill="#315e7f"
        stroke="#5d5e60"
        stroke-width="1.2"
        filter="url(#shadow)"/>

  
    <g stroke="#45a891" fill="none" stroke-width="2" stroke-linecap="round" stroke-linejoin="round" filter="url(#neonGlow)">
       <path d="M30 20 H70 A3 3 0 0 1 73 23 V77 A3 3 0 0 1 70 80 H30 A5 5 0 0 1 25 75 V25 A5 5 0 0 1 30 20 Z" />
       <path d="M32 20 V80" stroke-width="1.5" />
       <path d="M45 80 V88 L50 85 L55 88 V80" fill="#45a891" fill-opacity="0.2" />
       <line x1="35" y1="75" x2="70" y2="75" stroke-width="1" />
    </g>
  

  <!-- Title -->
  <text x="65" y="42"
        font-size="19"
        font-weight="600"
        fill="#eff0f2"
        font-family="Segoe UI, Arial, sans-serif">
        ToDo-List_react
  </text>

  <!-- Description -->
  <text x="30" y="85"
        font-size="14"
        fill="#959ea4"
        font-family="Segoe UI, Arial, sans-serif">

    <tspan x="30" dy="0">Front End todo list in HTML CSS JS, crud in memory.</tspan>
    

  </text>

  <!-- Bottom Row -->
  <g transform="translate(30,135)">

    <!-- Language Circle -->
    <circle cx="0" cy="0" r="8"
            fill="#f1e05a"/>

    <!-- Language -->
    <text x="18" y="0"
          font-size="13"
          fill="#959ea4"
          font-family="Segoe UI, Arial, sans-serif"
          dominant-baseline="middle">
      JavaScript
    </text>

    <!-- Star + Count (posição dinâmica) -->
    <g transform="translate(112,0)">

      
  <g transform="
      translate(-5.5, -6.416666666666666)
      scale(0.4583333333333333)
  ">
    <path d="M12 2
             L15 10
             L23 11
             L17 17
             L19 25
             L12 21
             L5 25
             L7 17
             L1 11
             L9 10 Z"
          fill="none"
          stroke="#45a891"
          stroke-width="2"
          stroke-linejoin="round"
          stroke-linecap="round"/>
  </g>

      <text x="19" y="0"
            font-size="13"
            fill="#959ea4"
            font-family="Segoe UI, Arial, sans-serif"
            dominant-baseline="middle">
        1
      </text>

    </g>

  </g>

</svg>
