
<svg width="600" height="220"
xmlns="http://www.w3.org/2000/svg">

<rect
width="600"
height="220"
rx="12"
fill="none"
stroke="white"
/>

<text
x="40"
y="40"
font-size="20"
fill="#f7f7f8"
font-family="Arial"
>
Linguagens mais usadas
</text>



<text
x="40"
y="70"
fill="#66d1a1"
font-size="14"
font-family="Arial"
>
Java
</text>

<rect
x="40"
y="78"
width="420"
height="8"
fill="white"
rx="4"
/>

<rect
x="40"
y="78"
width="327.42301352186587"
height="8"
fill="#037eeb"
rx="4"
/>

<text
x="470"
y="85"
fill="#66d1a1"
font-size="12"
font-family="Arial"
>
77.96%
</text>


<text
x="40"
y="110"
fill="#66d1a1"
font-size="14"
font-family="Arial"
>
HTML
</text>

<rect
x="40"
y="118"
width="420"
height="8"
fill="white"
rx="4"
/>

<rect
x="40"
y="118"
width="52.8510251769926"
height="8"
fill="#037eeb"
rx="4"
/>

<text
x="470"
y="125"
fill="#66d1a1"
font-size="12"
font-family="Arial"
>
12.58%
</text>


<text
x="40"
y="150"
fill="#66d1a1"
font-size="14"
font-family="Arial"
>
JavaScript
</text>

<rect
x="40"
y="158"
width="420"
height="8"
fill="white"
rx="4"
/>

<rect
x="40"
y="158"
width="20.374060460100797"
height="8"
fill="#037eeb"
rx="4"
/>

<text
x="470"
y="165"
fill="#66d1a1"
font-size="12"
font-family="Arial"
>
4.85%
</text>


<text
x="40"
y="190"
fill="#66d1a1"
font-size="14"
font-family="Arial"
>
C
</text>

<rect
x="40"
y="198"
width="420"
height="8"
fill="white"
rx="4"
/>

<rect
x="40"
y="198"
width="16.42806588442069"
height="8"
fill="#037eeb"
rx="4"
/>

<text
x="470"
y="205"
fill="#66d1a1"
font-size="12"
font-family="Arial"
>
3.91%
</text>


<text
x="40"
y="230"
fill="#66d1a1"
font-size="14"
font-family="Arial"
>
Shell
</text>

<rect
x="40"
y="238"
width="420"
height="8"
fill="white"
rx="4"
/>

<rect
x="40"
y="238"
width="2.9238349566200412"
height="8"
fill="#037eeb"
rx="4"
/>

<text
x="470"
y="245"
fill="#66d1a1"
font-size="12"
font-family="Arial"
>
0.70%
</text>


</svg>
