
<svg width="360" height="200" xmlns="http://www.w3.org/2000/svg">
  <rect width="360" height="200" rx="12" fill="#315e7f" stroke="#1b3c55" stroke-width="1.5"/>
  <text x="20" y="25" font-size="18" fill="#ffffff" font-family="Arial" font-weight="bold">Top Languages</text>
  
      <text x="20" y="60" fill="#66d1a1" font-size="12">JavaScript</text>
      <rect x="120" y="50" width="140" height="8" fill="#1f2f3a" rx="4"/>
      <rect x="120" y="50" width="95.06" height="8" fill="#00eaff" rx="4"/>
      <text x="310" y="60" fill="#66d1a1" font-size="12" text-anchor="end">67.9%</text>
      <text x="20" y="85" fill="#66d1a1" font-size="12">CSS</text>
      <rect x="120" y="75" width="140" height="8" fill="#1f2f3a" rx="4"/>
      <rect x="120" y="75" width="20.02" height="8" fill="#00eaff" rx="4"/>
      <text x="310" y="85" fill="#66d1a1" font-size="12" text-anchor="end">14.3%</text>
      <text x="20" y="110" fill="#66d1a1" font-size="12">Vue</text>
      <rect x="120" y="100" width="140" height="8" fill="#1f2f3a" rx="4"/>
      <rect x="120" y="100" width="9.94" height="8" fill="#00eaff" rx="4"/>
      <text x="310" y="110" fill="#66d1a1" font-size="12" text-anchor="end">7.1%</text>
      <text x="20" y="135" fill="#66d1a1" font-size="12">HTML</text>
      <rect x="120" y="125" width="140" height="8" fill="#1f2f3a" rx="4"/>
      <rect x="120" y="125" width="5.04" height="8" fill="#00eaff" rx="4"/>
      <text x="310" y="135" fill="#66d1a1" font-size="12" text-anchor="end">3.6%</text>
      <text x="20" y="160" fill="#66d1a1" font-size="12">Kotlin</text>
      <rect x="120" y="150" width="140" height="8" fill="#1f2f3a" rx="4"/>
      <rect x="120" y="150" width="5.04" height="8" fill="#00eaff" rx="4"/>
      <text x="310" y="160" fill="#66d1a1" font-size="12" text-anchor="end">3.6%</text>
      <text x="20" y="185" fill="#66d1a1" font-size="12">Java</text>
      <rect x="120" y="175" width="140" height="8" fill="#1f2f3a" rx="4"/>
      <rect x="120" y="175" width="5.04" height="8" fill="#00eaff" rx="4"/>
      <text x="310" y="185" fill="#66d1a1" font-size="12" text-anchor="end">3.6%</text>
</svg>