
<svg width="420" height="200"
xmlns="http://www.w3.org/2000/svg">

<rect width="420" height="200"
rx="12"
fill="none"
stroke="white"/>

<text x="20" y="30"
font-size="18"
fill="#f7f7f8">
Linguagens mais usadas
</text>



<text x="20" y="60"
fill="#66d1a1"
font-size="13">Java</text>

<rect x="20" y="66"
width="260" height="8"
fill="#ffffff22"
rx="4"/>

<rect x="20" y="66"
width="202.6858571458864" height="8"
fill="#b07219"
rx="4"/>

<text x="290" y="73"
fill="#66d1a1"
font-size="12">
77.96%
</text>


<text x="20" y="88"
fill="#66d1a1"
font-size="13">HTML</text>

<rect x="20" y="94"
width="260" height="8"
fill="#ffffff22"
rx="4"/>

<rect x="20" y="94"
width="32.716562051684214" height="8"
fill="#e34c26"
rx="4"/>

<text x="290" y="101"
fill="#66d1a1"
font-size="12">
12.58%
</text>


<text x="20" y="116"
fill="#66d1a1"
font-size="13">JavaScript</text>

<rect x="20" y="122"
width="260" height="8"
fill="#ffffff22"
rx="4"/>

<rect x="20" y="122"
width="12.618103345489457" height="8"
fill="#f1e05a"
rx="4"/>

<text x="290" y="129"
fill="#66d1a1"
font-size="12">
4.85%
</text>


<text x="20" y="144"
fill="#66d1a1"
font-size="13">C</text>

<rect x="20" y="150"
width="260" height="8"
fill="#ffffff22"
rx="4"/>

<rect x="20" y="150"
width="10.169525285401283" height="8"
fill="#555555"
rx="4"/>

<text x="290" y="157"
fill="#66d1a1"
font-size="12">
3.91%
</text>


<text x="20" y="172"
fill="#66d1a1"
font-size="13">Shell</text>

<rect x="20" y="178"
width="260" height="8"
fill="#ffffff22"
rx="4"/>

<rect x="20" y="178"
width="1.8099521715386764" height="8"
fill="#89e051"
rx="4"/>

<text x="290" y="185"
fill="#66d1a1"
font-size="12">
0.70%
</text>


</svg>
