
<svg width="420" height="200"
xmlns="http://www.w3.org/2000/svg">

<rect width="420" height="200"
rx="12"
fill="none"
stroke="white"/>

<text x="20" y="30"
font-size="18"
fill="#f7f7f8"
font-family="Arial">
Almir-git-unifc GitHub Stats
</text>

<g font-size="14"
fill="#66d1a1"
font-family="Arial">

<foreignObject x="20" y="50" width="250" height="120">

<div xmlns="http://www.w3.org/1999/xhtml">

<div><svg width="16" height="16" fill="none" stroke="#037eeb" stroke-width="2"><polygon points="8,1 10.5,6 16,6 11.5,9.5 13.5,15 8,11.5 2.5,15 4.5,9.5 0,6 5.5,6"/></svg> Total Stars Earned: 24</div>
<div><svg width="16" height="16" fill="none" stroke="#037eeb" stroke-width="2"><circle cx="8" cy="8" r="3"/></svg> Commits (last year): 318</div>
<div><svg width="16" height="16" fill="none" stroke="#037eeb" stroke-width="2"><path d="M5 3v8M11 5v6"/><circle cx="5" cy="2" r="2"/><circle cx="11" cy="4" r="2"/><circle cx="11" cy="12" r="2"/></svg> Total PRs: 155</div>
<div><svg width="16" height="16" fill="none" stroke="#037eeb" stroke-width="2"><circle cx="8" cy="8" r="6"/><line x1="8" y1="4" x2="8" y2="9"/></svg> Total Issues: 5</div>
<div><svg width="16" height="16" fill="none" stroke="#037eeb" stroke-width="2"><circle cx="4" cy="8" r="2"/><circle cx="12" cy="8" r="2"/><line x1="6" y1="8" x2="10" y2="8"/></svg> Contributed to: 12</div>

</div>

</foreignObject>

</g>


<g transform="translate(320,120)">

<circle r="40" cx="0" cy="0"
fill="none"
stroke="#2a2a2a"
stroke-width="10"/>

<circle r="40" cx="0" cy="0"
fill="none"
stroke="#66d1a1"
stroke-width="10"
stroke-dasharray="91.9355674146517 251.32741228718345"
transform="rotate(-90)"/>

<text x="0" y="6"
text-anchor="middle"
fill="#66d1a1"
font-size="18"
font-family="Arial">B</text>

</g>


</svg>
